<svg width="12" height="10" viewBox="0 0 12 10" fill="none" xmlns="http://www.w3.org/2000/svg">
<g clip-path="url(#clip0_1406_771)">
<path d="M7.85742 6.73584L8.48242 6.11084C8.58008 6.01318 8.75 6.08154 8.75 6.22217V9.06201C8.75 9.57959 8.33008 9.99951 7.8125 9.99951H0.9375C0.419922 9.99951 0 9.57959 0 9.06201V2.18701C0 1.66943 0.419922 1.24951 0.9375 1.24951H6.2793C6.41797 1.24951 6.48828 1.41748 6.39063 1.51709L5.76563 2.14209C5.73633 2.17139 5.69727 2.18701 5.6543 2.18701H0.9375V9.06201H7.8125V6.84522C7.8125 6.8042 7.82813 6.76514 7.85742 6.73584ZM10.916 2.79443L5.78711 7.92334L4.02148 8.11865C3.50977 8.17529 3.07422 7.74365 3.13086 7.22803L3.32617 5.4624L8.45508 0.333496C8.90235 -0.11377 9.625 -0.11377 10.0703 0.333496L10.9141 1.17725C11.3613 1.62451 11.3613 2.34912 10.916 2.79443ZM8.98633 3.39795L7.85156 2.26318L4.22266 5.89404L4.08008 7.16943L5.35547 7.02686L8.98633 3.39795ZM10.252 1.84131L9.40821 0.997559C9.32813 0.917481 9.19727 0.917481 9.11914 0.997559L8.51563 1.60107L9.65039 2.73584L10.2539 2.13232C10.332 2.05029 10.332 1.92139 10.252 1.84131Z" fill="#505050"/>
</g>
<defs>
<clipPath id="clip0_1406_771">
<rect width="11.25" height="10" fill="white"/>
</clipPath>
</defs>
</svg>
